<svg xmlns="http://www.w3.org/2000/svg" viewBox="0 0 64 64">
  <!-- Fond -->
  <rect width="64" height="64" fill="#4C97FF" rx="8"/>
  
  <!-- Pièce de puzzle 1 (haut gauche) -->
  <path d="M 12 12 L 30 12 L 30 18 Q 32 18 32 20 Q 32 22 30 22 L 30 30 L 24 30 Q 24 28 22 28 Q 20 28 20 30 L 12 30 Z" fill="#FFF" opacity="0.9"/>
  
  <!-- Pièce de puzzle 2 (haut droit) -->
  <path d="M 34 12 L 52 12 L 52 30 L 46 30 Q 46 28 44 28 Q 42 28 42 30 L 34 30 L 34 24 Q 36 24 36 22 Q 36 20 34 20 Z" fill="#FFF" opacity="0.9"/>
  
  <!-- Pièce de puzzle 3 (bas gauche) -->
  <path d="M 12 34 L 20 34 Q 20 36 22 36 Q 24 36 24 34 L 30 34 L 30 52 L 12 52 Z" fill="#FFF" opacity="0.9"/>
  
  <!-- Pièce de puzzle 4 (bas droit) -->
  <path d="M 34 34 L 42 34 Q 42 36 44 36 Q 46 36 46 34 L 52 34 L 52 52 L 34 52 L 34 46 Q 36 46 36 44 Q 36 42 34 42 Z" fill="#FFF" opacity="0.9"/>
</svg>
